<svg width="316" height="42" viewBox="0 0 316 42" fill="none" xmlns="http://www.w3.org/2000/svg">
<rect width="316" height="42" rx="21" fill="black"/>
<path d="M102.599 26.252C101.351 26.252 100.301 25.976 99.449 25.424C98.597 24.86 97.997 24.098 97.649 23.138L99.773 21.896C100.265 23.18 101.231 23.822 102.671 23.822C103.367 23.822 103.877 23.696 104.201 23.444C104.525 23.192 104.687 22.874 104.687 22.49C104.687 22.046 104.489 21.704 104.093 21.464C103.697 21.212 102.989 20.942 101.969 20.654C101.405 20.486 100.925 20.318 100.529 20.15C100.145 19.982 99.755 19.76 99.359 19.484C98.975 19.196 98.681 18.836 98.477 18.404C98.273 17.972 98.171 17.468 98.171 16.892C98.171 15.752 98.573 14.846 99.377 14.174C100.193 13.49 101.171 13.148 102.311 13.148C103.331 13.148 104.225 13.4 104.993 13.904C105.773 14.396 106.379 15.086 106.811 15.974L104.723 17.18C104.219 16.1 103.415 15.56 102.311 15.56C101.795 15.56 101.387 15.68 101.087 15.92C100.799 16.148 100.655 16.448 100.655 16.82C100.655 17.216 100.817 17.54 101.141 17.792C101.477 18.032 102.113 18.296 103.049 18.584C103.433 18.704 103.721 18.8 103.913 18.872C104.117 18.932 104.387 19.034 104.723 19.178C105.071 19.31 105.335 19.436 105.515 19.556C105.707 19.676 105.923 19.838 106.163 20.042C106.403 20.246 106.583 20.456 106.703 20.672C106.835 20.888 106.943 21.152 107.027 21.464C107.123 21.764 107.171 22.094 107.171 22.454C107.171 23.618 106.745 24.542 105.893 25.226C105.053 25.91 103.955 26.252 102.599 26.252ZM110.891 22.454C111.203 23.582 112.049 24.146 113.429 24.146C114.317 24.146 114.989 23.846 115.445 23.246L117.317 24.326C116.429 25.61 115.121 26.252 113.393 26.252C111.905 26.252 110.711 25.802 109.811 24.902C108.911 24.002 108.461 22.868 108.461 21.5C108.461 20.144 108.905 19.016 109.793 18.116C110.681 17.204 111.821 16.748 113.213 16.748C114.533 16.748 115.619 17.204 116.471 18.116C117.335 19.028 117.767 20.156 117.767 21.5C117.767 21.8 117.737 22.118 117.677 22.454H110.891ZM110.855 20.654H115.445C115.313 20.042 115.037 19.586 114.617 19.286C114.209 18.986 113.741 18.836 113.213 18.836C112.589 18.836 112.073 18.998 111.665 19.322C111.257 19.634 110.987 20.078 110.855 20.654ZM124.392 16.748C125.376 16.748 126.186 17.078 126.822 17.738C127.47 18.398 127.794 19.31 127.794 20.474V26H125.472V20.762C125.472 20.162 125.31 19.706 124.986 19.394C124.662 19.07 124.23 18.908 123.69 18.908C123.09 18.908 122.61 19.094 122.25 19.466C121.89 19.838 121.71 20.396 121.71 21.14V26H119.388V17H121.71V18.008C122.274 17.168 123.168 16.748 124.392 16.748ZM136.599 13.4H138.921V26H136.599V24.938C135.915 25.814 134.943 26.252 133.683 26.252C132.471 26.252 131.433 25.796 130.569 24.884C129.717 23.96 129.291 22.832 129.291 21.5C129.291 20.168 129.717 19.046 130.569 18.134C131.433 17.21 132.471 16.748 133.683 16.748C134.943 16.748 135.915 17.186 136.599 18.062V13.4ZM132.315 23.336C132.795 23.804 133.395 24.038 134.115 24.038C134.835 24.038 135.429 23.804 135.897 23.336C136.365 22.856 136.599 22.244 136.599 21.5C136.599 20.756 136.365 20.15 135.897 19.682C135.429 19.202 134.835 18.962 134.115 18.962C133.395 18.962 132.795 19.202 132.315 19.682C131.847 20.15 131.613 20.756 131.613 21.5C131.613 22.244 131.847 22.856 132.315 23.336ZM155.498 16.748C156.53 16.748 157.352 17.084 157.964 17.756C158.588 18.428 158.9 19.328 158.9 20.456V26H156.578V20.618C156.578 20.078 156.446 19.658 156.182 19.358C155.918 19.058 155.546 18.908 155.066 18.908C154.538 18.908 154.124 19.082 153.824 19.43C153.536 19.778 153.392 20.282 153.392 20.942V26H151.07V20.618C151.07 20.078 150.938 19.658 150.674 19.358C150.41 19.058 150.038 18.908 149.558 18.908C149.042 18.908 148.628 19.082 148.316 19.43C148.016 19.778 147.866 20.282 147.866 20.942V26H145.544V17H147.866V17.954C148.406 17.15 149.24 16.748 150.368 16.748C151.472 16.748 152.288 17.18 152.816 18.044C153.416 17.18 154.31 16.748 155.498 16.748ZM162.835 22.454C163.147 23.582 163.993 24.146 165.373 24.146C166.261 24.146 166.933 23.846 167.389 23.246L169.261 24.326C168.373 25.61 167.065 26.252 165.337 26.252C163.849 26.252 162.655 25.802 161.755 24.902C160.855 24.002 160.405 22.868 160.405 21.5C160.405 20.144 160.849 19.016 161.737 18.116C162.625 17.204 163.765 16.748 165.157 16.748C166.477 16.748 167.563 17.204 168.415 18.116C169.279 19.028 169.711 20.156 169.711 21.5C169.711 21.8 169.681 22.118 169.621 22.454H162.835ZM162.799 20.654H167.389C167.257 20.042 166.981 19.586 166.561 19.286C166.153 18.986 165.685 18.836 165.157 18.836C164.533 18.836 164.017 18.998 163.609 19.322C163.201 19.634 162.931 20.078 162.799 20.654ZM173.122 19.556C173.122 19.796 173.278 19.994 173.59 20.15C173.914 20.294 174.304 20.426 174.76 20.546C175.216 20.654 175.672 20.798 176.128 20.978C176.584 21.146 176.968 21.434 177.28 21.842C177.604 22.25 177.766 22.76 177.766 23.372C177.766 24.296 177.418 25.01 176.722 25.514C176.038 26.006 175.18 26.252 174.148 26.252C172.3 26.252 171.04 25.538 170.368 24.11L172.384 22.976C172.648 23.756 173.236 24.146 174.148 24.146C174.976 24.146 175.39 23.888 175.39 23.372C175.39 23.132 175.228 22.94 174.904 22.796C174.592 22.64 174.208 22.502 173.752 22.382C173.296 22.262 172.84 22.112 172.384 21.932C171.928 21.752 171.538 21.47 171.214 21.086C170.902 20.69 170.746 20.198 170.746 19.61C170.746 18.722 171.07 18.026 171.718 17.522C172.378 17.006 173.194 16.748 174.166 16.748C174.898 16.748 175.564 16.916 176.164 17.252C176.764 17.576 177.238 18.044 177.586 18.656L175.606 19.736C175.318 19.124 174.838 18.818 174.166 18.818C173.866 18.818 173.614 18.884 173.41 19.016C173.218 19.148 173.122 19.328 173.122 19.556ZM180.927 19.556C180.927 19.796 181.083 19.994 181.395 20.15C181.719 20.294 182.109 20.426 182.565 20.546C183.021 20.654 183.477 20.798 183.933 20.978C184.389 21.146 184.773 21.434 185.085 21.842C185.409 22.25 185.571 22.76 185.571 23.372C185.571 24.296 185.223 25.01 184.527 25.514C183.843 26.006 182.985 26.252 181.953 26.252C180.105 26.252 178.845 25.538 178.173 24.11L180.189 22.976C180.453 23.756 181.041 24.146 181.953 24.146C182.781 24.146 183.195 23.888 183.195 23.372C183.195 23.132 183.033 22.94 182.709 22.796C182.397 22.64 182.013 22.502 181.557 22.382C181.101 22.262 180.645 22.112 180.189 21.932C179.733 21.752 179.343 21.47 179.019 21.086C178.707 20.69 178.551 20.198 178.551 19.61C178.551 18.722 178.875 18.026 179.523 17.522C180.183 17.006 180.999 16.748 181.971 16.748C182.703 16.748 183.369 16.916 183.969 17.252C184.569 17.576 185.043 18.044 185.391 18.656L183.411 19.736C183.123 19.124 182.643 18.818 181.971 18.818C181.671 18.818 181.419 18.884 181.215 19.016C181.023 19.148 180.927 19.328 180.927 19.556ZM193.781 17H196.103V26H193.781V24.938C193.085 25.814 192.107 26.252 190.847 26.252C189.647 26.252 188.615 25.796 187.751 24.884C186.899 23.96 186.473 22.832 186.473 21.5C186.473 20.168 186.899 19.046 187.751 18.134C188.615 17.21 189.647 16.748 190.847 16.748C192.107 16.748 193.085 17.186 193.781 18.062V17ZM189.497 23.336C189.965 23.804 190.559 24.038 191.279 24.038C191.999 24.038 192.593 23.804 193.061 23.336C193.541 22.856 193.781 22.244 193.781 21.5C193.781 20.756 193.541 20.15 193.061 19.682C192.593 19.202 191.999 18.962 191.279 18.962C190.559 18.962 189.965 19.202 189.497 19.682C189.029 20.15 188.795 20.756 188.795 21.5C188.795 22.244 189.029 22.856 189.497 23.336ZM205.102 17H207.37V25.568C207.37 26.96 206.908 28.022 205.984 28.754C205.072 29.486 203.968 29.852 202.672 29.852C201.7 29.852 200.842 29.666 200.098 29.294C199.366 28.922 198.802 28.376 198.406 27.656L200.386 26.522C200.842 27.362 201.628 27.782 202.744 27.782C203.476 27.782 204.052 27.59 204.472 27.206C204.892 26.822 205.102 26.276 205.102 25.568V24.596C204.418 25.508 203.458 25.964 202.222 25.964C200.95 25.964 199.882 25.52 199.018 24.632C198.166 23.732 197.74 22.64 197.74 21.356C197.74 20.084 198.172 18.998 199.036 18.098C199.9 17.198 200.962 16.748 202.222 16.748C203.458 16.748 204.418 17.204 205.102 18.116V17ZM200.764 23.138C201.244 23.594 201.85 23.822 202.582 23.822C203.314 23.822 203.914 23.594 204.382 23.138C204.862 22.67 205.102 22.076 205.102 21.356C205.102 20.648 204.862 20.066 204.382 19.61C203.914 19.142 203.314 18.908 202.582 18.908C201.85 18.908 201.244 19.142 200.764 19.61C200.296 20.066 200.062 20.648 200.062 21.356C200.062 22.076 200.296 22.67 200.764 23.138ZM211.438 22.454C211.75 23.582 212.596 24.146 213.976 24.146C214.864 24.146 215.536 23.846 215.992 23.246L217.864 24.326C216.976 25.61 215.668 26.252 213.94 26.252C212.452 26.252 211.258 25.802 210.358 24.902C209.458 24.002 209.008 22.868 209.008 21.5C209.008 20.144 209.452 19.016 210.34 18.116C211.228 17.204 212.368 16.748 213.76 16.748C215.08 16.748 216.166 17.204 217.018 18.116C217.882 19.028 218.314 20.156 218.314 21.5C218.314 21.8 218.284 22.118 218.224 22.454H211.438ZM211.402 20.654H215.992C215.86 20.042 215.584 19.586 215.164 19.286C214.756 18.986 214.288 18.836 213.76 18.836C213.136 18.836 212.62 18.998 212.212 19.322C211.804 19.634 211.534 20.078 211.402 20.654Z" fill="white"/>
</svg>
